<?xml version="1.0" encoding="utf-8"?>
<!-- Generator: Adobe Illustrator 19.0.0, SVG Export Plug-In . SVG Version: 6.00 Build 0)  -->
<svg version="1.0" id="Layer_1" xmlns="http://www.w3.org/2000/svg" xmlns:xlink="http://www.w3.org/1999/xlink" x="0px" y="0px"
	 viewBox="7 -1.7 18 16" style="enable-background:new 7 -1.7 18 16;" xml:space="preserve">
<style type="text/css">
	.st0{fill:#FFFFFF;}
</style>
<path class="st0" d="M22.9-0.7c-0.2-0.6-0.8-1-1.4-1h-11c-0.7,0-1.2,0.4-1.4,1L7,5.3v8c0,0.5,0.4,1,1,1h1c0.6,0,1-0.5,1-1v-1h12v1
	c0,0.5,0.5,1,1,1h1c0.5,0,1-0.5,1-1v-8L22.9-0.7z M10.5,9.3C9.7,9.3,9,8.7,9,7.8s0.7-1.5,1.5-1.5S12,7,12,7.8S11.3,9.3,10.5,9.3z
	 M21.5,9.3c-0.8,0-1.5-0.7-1.5-1.5s0.7-1.5,1.5-1.5S23,7,23,7.8S22.3,9.3,21.5,9.3z M9,4.3l1.5-4.5h11L23,4.3H9z"/>
</svg>
