<?xml version="1.0" encoding="utf-8"?>
<!-- Generator: Adobe Illustrator 19.0.0, SVG Export Plug-In . SVG Version: 6.00 Build 0)  -->
<svg version="1.0" id="Layer_1" xmlns="http://www.w3.org/2000/svg" xmlns:xlink="http://www.w3.org/1999/xlink" x="0px" y="0px"
	 viewBox="-49 55 20 20" style="enable-background:new -49 55 20 20;" xml:space="preserve">
<style type="text/css">
	.st0{fill:#FFFFFF;}
	.st1{clip-path:url(#SVGID_2_);}
</style>
<g>
	<path class="st0" d="M-43,71c-1.1,0-2,0.9-2,2s0.9,2,2,2s2-0.9,2-2S-41.9,71-43,71z M-49,55v2h2l3.6,7.6l-1.3,2.5
		c-0.2,0.3-0.2,0.6-0.2,1c0,1.1,0.9,2,2,2h12v-2h-11.6c-0.1,0-0.2-0.1-0.2-0.2l0-0.1l0.9-1.6h7.5c0.8,0,1.4-0.4,1.8-1l3.6-6.5
		C-29,58.3-29,58.2-29,58c0-0.5-0.5-1-1-1h-14.8l-0.9-2H-49z M-33,71c-1.1,0-2,0.9-2,2s0.9,2,2,2s2-0.9,2-2S-31.9,71-33,71z"/>
	<g>
		<defs>
			<path id="SVGID_1_" d="M-41.9,66h7.5c0.8,0,1.4-0.4,1.8-1l3.6-6.5C-29,58.3-29,58.2-29,58c0-0.5-0.5-1-1-1h-14.8l-0.9-2H-49v2h2
				l3.6,7.6L-41.9,66"/>
		</defs>
		<clipPath id="SVGID_2_">
			<use xlink:href="#SVGID_1_"  style="overflow:visible;"/>
		</clipPath>
		<g class="st1">
			<rect x="-46.1" y="62.4" width="2.2" height="1.3"/>
			<rect x="-41.7" y="62.4" width="2.2" height="1.3"/>
			<rect x="-37.2" y="62.4" width="2.2" height="1.3"/>
			<rect x="-32.8" y="62.4" width="2.2" height="1.3"/>
			<rect x="-43.9" y="63.8" width="2.2" height="1.3"/>
			<rect x="-46.1" y="65.1" width="2.2" height="1.3"/>
			<rect x="-41.7" y="65.1" width="2.2" height="1.3"/>
			<rect x="-43.9" y="66.4" width="2.2" height="1.3"/>
			<rect x="-39.4" y="63.8" width="2.2" height="1.3"/>
			<rect x="-35" y="63.8" width="2.2" height="1.3"/>
			<rect x="-46.1" y="59.7" width="2.2" height="1.3"/>
			<rect x="-41.7" y="59.7" width="2.2" height="1.3"/>
			<rect x="-37.2" y="59.7" width="2.2" height="1.3"/>
			<rect x="-32.8" y="59.7" width="2.2" height="1.3"/>
			<rect x="-43.9" y="61.1" width="2.2" height="1.3"/>
			<rect x="-39.4" y="61.1" width="2.2" height="1.3"/>
			<rect x="-35" y="61.1" width="2.2" height="1.3"/>
			<rect x="-37.2" y="65.1" width="2.2" height="1.3"/>
			<rect x="-32.8" y="65.1" width="2.2" height="1.3"/>
			<rect x="-39.4" y="66.5" width="2.2" height="1.3"/>
			<rect x="-35" y="66.5" width="2.2" height="1.3"/>
			<rect x="-37.2" y="67.8" width="2.2" height="1.3"/>
			<rect x="-32.8" y="67.8" width="2.2" height="1.3"/>
			<rect x="-41.7" y="67.8" width="2.2" height="1.3"/>
			<rect x="-46.1" y="67.8" width="2.2" height="1.3"/>
		</g>
	</g>
</g>
</svg>
