<?xml version="1.0" encoding="utf-8"?>
<!-- Generator: Adobe Illustrator 19.0.0, SVG Export Plug-In . SVG Version: 6.00 Build 0)  -->
<svg version="1.0" id="Layer_1" xmlns="http://www.w3.org/2000/svg" xmlns:xlink="http://www.w3.org/1999/xlink" x="0px" y="0px"
	 viewBox="5 -1 21 18" style="enable-background:new 5 -1 21 18;" xml:space="preserve">
<style type="text/css">
	.st0{fill:#FFFFFF;}
</style>
<path class="st0" d="M17-1c-5,0-9,4-9,9H5l3.9,3.9L9,12l4-4h-3c0-3.9,3.1-7,7-7s7,3.1,7,7s-3.1,7-7,7c-1.9,0-3.7-0.8-4.9-2.1
	l-1.4,1.4C12.3,16,14.5,17,17,17c5,0,9-4,9-9S22-1,17-1z M16,4v5l4.3,2.5l0.7-1.2l-3.5-2.1V4H16z"/>
</svg>
