<?xml version="1.0" encoding="utf-8"?>
<!-- Generator: Adobe Illustrator 19.0.0, SVG Export Plug-In . SVG Version: 6.00 Build 0)  -->
<svg version="1.0" id="Layer_1" xmlns="http://www.w3.org/2000/svg" xmlns:xlink="http://www.w3.org/1999/xlink" x="0px" y="0px"
	 viewBox="4.3 0 19.5 20" style="enable-background:new 4.3 0 19.5 20;" xml:space="preserve">
<style type="text/css">
	.st0{fill:#FFFFFF;}
</style>
<path class="st0" d="M21.4,11c0-0.3,0.1-0.6,0.1-1s0-0.7-0.1-1l2.1-1.6c0.2-0.1,0.2-0.4,0.1-0.6l-2-3.5c-0.1-0.2-0.4-0.3-0.6-0.2
	l-2.5,1c-0.5-0.4-1.1-0.7-1.7-1l-0.4-2.7C16.5,0.2,16.2,0,16,0h-4c-0.2,0-0.5,0.2-0.5,0.4l-0.4,2.7c-0.6,0.2-1.2,0.6-1.7,1l-2.5-1
	C6.7,3,6.5,3.1,6.3,3.3l-2,3.5C4.2,6.9,4.3,7.2,4.5,7.4L6.6,9c0,0.3-0.1,0.6-0.1,1s0,0.7,0.1,1l-2.1,1.6c-0.2,0.1-0.2,0.4-0.1,0.6
	l2,3.5C6.5,16.9,6.7,17,7,16.9l2.5-1c0.5,0.4,1.1,0.7,1.7,1l0.4,2.6c0,0.2,0.2,0.4,0.5,0.4h4c0.2,0,0.5-0.2,0.5-0.4l0.4-2.6
	c0.6-0.2,1.2-0.6,1.7-1l2.5,1c0.2,0.1,0.5,0,0.6-0.2l2-3.5c0.1-0.2,0.1-0.5-0.1-0.6L21.4,11z M14,13.5c-1.9,0-3.5-1.6-3.5-3.5
	s1.6-3.5,3.5-3.5s3.5,1.6,3.5,3.5S15.9,13.5,14,13.5z"/>
</svg>
