<?xml version="1.0" encoding="utf-8"?>
<!-- Generator: Adobe Illustrator 19.0.0, SVG Export Plug-In . SVG Version: 6.00 Build 0)  -->
<svg version="1.1" id="Layer_1" xmlns="http://www.w3.org/2000/svg" xmlns:xlink="http://www.w3.org/1999/xlink" x="0px" y="0px"
	 viewBox="0 0 37 32" style="enable-background:new 0 0 37 32;" xml:space="preserve">
<style type="text/css">
	.st0{fill:#D81218;}
</style>
<path id="XMLID_2_" class="st0" d="M36.2,31.9L0.8,32C0.4,32,0,31.6,0,31.2c0-0.4,0.4-0.8,0.8-0.8l35.4-0.1c0.4,0,0.8,0.4,0.8,0.8
	C37,31.5,36.6,31.9,36.2,31.9z M12,24c0.4,0,0.8,0.4,0.8,0.8c0,0.4-0.4,0.8-0.8,0.8l-6.4,0c-0.4,0-0.8-0.4-0.8-0.8
	c0-0.4,0.4-0.8,0.8-0.8l0.8,0l0-10.3l-0.8,0c-0.4,0-0.8-0.4-0.8-0.8c0-0.4,0.4-0.8,0.8-0.8l6.4,0c0.4,0,0.8,0.4,0.8,0.8
	c0,0.4-0.4,0.8-0.8,0.8l-0.8,0l0,10.3L12,24z M9.6,13.7l-1.6,0l0,10.3l1.6,0L9.6,13.7z M21.7,24c0.4,0,0.8,0.4,0.8,0.8
	c0,0.4-0.4,0.8-0.8,0.8l-6.4,0c-0.4,0-0.8-0.4-0.8-0.8c0-0.4,0.4-0.8,0.8-0.8l0.8,0l0-10.3l-0.8,0c-0.4,0-0.8-0.4-0.8-0.8
	c0-0.4,0.4-0.8,0.8-0.8l6.4,0c0.4,0,0.8,0.4,0.8,0.8c0,0.4-0.4,0.8-0.8,0.8l-0.8,0l0,10.3L21.7,24z M19.2,13.7l-1.6,0l0,10.3l1.6,0
	L19.2,13.7z M34.6,27.9c0,0.4-0.4,0.8-0.8,0.8L3.2,28.8c-0.4,0-0.8-0.4-0.8-0.8c0-0.4,0.4-0.8,0.8-0.8l30.6-0.1
	C34.2,27.1,34.6,27.5,34.6,27.9z M31.3,24c0.4,0,0.8,0.4,0.8,0.8c0,0.4-0.4,0.8-0.8,0.8l-6.4,0c-0.4,0-0.8-0.4-0.8-0.8
	c0-0.4,0.4-0.8,0.8-0.8l0.8,0l0-10.3l-0.8,0c-0.4,0-0.8-0.4-0.8-0.8c0-0.4,0.4-0.8,0.8-0.8l6.4,0c0.4,0,0.8,0.4,0.8,0.8
	c0,0.4-0.4,0.8-0.8,0.8l-0.8,0l0,10.3L31.3,24z M28.9,13.7l-1.6,0l0,10.3l1.6,0L28.9,13.7z M2,8.8L18,0.1c0.2-0.1,0.5-0.1,0.8,0
	l16.1,8.6c0.3,0.1,0.4,0.4,0.4,0.7l0,0.3c0,0.4-0.4,0.8-0.8,0.8L2.3,10.6c-0.4,0-0.8-0.4-0.8-0.8l0-0.3C1.5,9.2,1.7,8.9,2,8.8z
	 M31.7,8.9l-13-6.6c-0.2-0.1-0.5-0.1-0.7,0L5.1,9L31.7,8.9z"/>
</svg>
