<?xml version="1.0" encoding="utf-8"?>
<!-- Generator: Adobe Illustrator 19.0.0, SVG Export Plug-In . SVG Version: 6.00 Build 0)  -->
<svg version="1.1" id="Layer_1" xmlns="http://www.w3.org/2000/svg" xmlns:xlink="http://www.w3.org/1999/xlink" x="0px" y="0px"
	 viewBox="0 0 46 32" style="enable-background:new 0 0 46 32;" xml:space="preserve">
<style type="text/css">
	.st0{fill:#D81218;}
</style>
<path id="XMLID_2_" class="st0" d="M42,32H4c-2.2,0-4-1.8-4-4V4c0-2.2,1.8-4,4-4h38c2.2,0,4,1.8,4,4v24C46,30.2,44.2,32,42,32z
	 M2,13h42V9H2V13z M44,4c0-1.1-0.9-2-2-2H4C2.9,2,2,2.9,2,4v3h42V4z M44,15H2v13c0,1.1,0.9,2,2,2h38c1.1,0,2-0.9,2-2V15z M25,21h-4
	c-0.6,0-1-0.4-1-1c0-0.6,0.4-1,1-1h4c0.6,0,1,0.4,1,1C26,20.6,25.6,21,25,21z M16,21H7c-0.6,0-1-0.4-1-1c0-0.6,0.4-1,1-1h9
	c0.6,0,1,0.4,1,1C17,20.6,16.6,21,16,21z M7,24h6c0.6,0,1,0.4,1,1c0,0.6-0.4,1-1,1H7c-0.6,0-1-0.4-1-1C6,24.4,6.4,24,7,24z"/>
</svg>
