<?xml version="1.0" encoding="utf-8"?>
<!-- Generator: Adobe Illustrator 19.0.0, SVG Export Plug-In . SVG Version: 6.00 Build 0)  -->
<svg version="1.1" id="Layer_1" xmlns="http://www.w3.org/2000/svg" xmlns:xlink="http://www.w3.org/1999/xlink" x="0px" y="0px"
	 viewBox="0 0 37.6 33.5" style="enable-background:new 0 0 37.6 33.5;" xml:space="preserve">
<style type="text/css">
	.st0{fill:#D81218;}
</style>
<path id="XMLID_2_" class="st0" d="M37.6,29.4L37.6,29.4c0,2.3-1.8,4.1-4.1,4.1l0,0H4.1l0,0c-2.3,0-4.1-1.8-4.1-4.1V5.7
	c0-1.8,1.5-3.3,3.3-3.3l0,0h16.5L26.3,0c0.4-0.2,0.9,0.1,1,0.5l0.7,1.9H31c1.8,0,3.3,1.5,3.3,3.3v1.6l0,0c1.8,0,3.3,1.5,3.3,3.3
	V29.4z M3.3,4.1L3.3,4.1c-0.9,0-1.6,0.7-1.6,1.6s0.7,1.6,1.6,1.6h2.8l0,0h0.2c0,0,0,0,0,0l9-3.2H3.3z M27,4.2l-0.9-2.4h0l0,0
	l-1.7,0.6h0L20,4.1h0l-9,3.3h17.2L27,4.2z M32.7,5.7c0-0.9-0.7-1.6-1.6-1.6h-2.4l1.2,3.3h2.8l0,0V5.7z M34.3,9h-31l0,0
	C2.7,9,2.1,8.8,1.6,8.5v20.9c0,1.4,1.1,2.4,2.4,2.4h29.4c1.4,0,2.4-1.1,2.4-2.4v-5.7h-3.3c-1.8,0-3.3-1.5-3.3-3.3
	c0-1.8,1.5-3.3,3.3-3.3h3.3v-6.5C35.9,9.7,35.2,9,34.3,9z M35.9,22v-3.3h-3.3c-0.9,0-1.6,0.7-1.6,1.6c0,0.9,0.7,1.6,1.6,1.6H35.9z
	 M32.7,19.6h1.6v1.6h-1.6V19.6z"/>
</svg>
