<?xml version="1.0" encoding="utf-8"?>
<!-- Generator: Adobe Illustrator 19.0.0, SVG Export Plug-In . SVG Version: 6.00 Build 0)  -->
<svg version="1.1" id="Layer_1" xmlns="http://www.w3.org/2000/svg" xmlns:xlink="http://www.w3.org/1999/xlink" x="0px" y="0px"
	 viewBox="-27 46 14 20" style="enable-background:new -27 46 14 20;" xml:space="preserve">
<style type="text/css">
	.st0{fill:#FFFFFF;}
</style>
<path class="st0" d="M-23,65c0,0.6,0.5,1,1,1h4c0.5,0,1-0.4,1-1v-1h-6V65z M-20,46c-3.9,0-7,3.1-7,7c0,2.4,1.2,4.5,3,5.7V61
	c0,0.5,0.5,1,1,1h6c0.5,0,1-0.5,1-1v-2.3c1.8-1.3,3-3.4,3-5.7C-13,49.1-16.1,46-20,46z M-17.1,57.1l-0.9,0.6V60h-4v-2.3l-0.9-0.6
	c-1.4-0.9-2.1-2.5-2.1-4.1c0-2.8,2.2-5,5-5s5,2.2,5,5C-15,54.6-15.8,56.2-17.1,57.1z"/>
</svg>
