<?xml version="1.0" encoding="utf-8"?>
<!-- Generator: Adobe Illustrator 20.0.0, SVG Export Plug-In . SVG Version: 6.00 Build 0)  -->
<svg version="1.0" id="Layer_1" xmlns="http://www.w3.org/2000/svg" xmlns:xlink="http://www.w3.org/1999/xlink" x="0px" y="0px"
	 viewBox="0 0 45 41.1" style="enable-background:new 0 0 45 41.1;" xml:space="preserve">
<style type="text/css">
	.st0{fill:#FFFFFF;}
</style>
<path class="st0" d="M5.9,5.9V0h3.9v5.9h5.9v3.9H9.8v5.9H5.9V9.8H0V5.9H5.9z M11.8,17.6v-5.9h5.9V5.9h13.7l3.6,3.9h6.2
	c2.2,0,3.9,1.8,3.9,3.9v23.5c0,2.2-1.8,3.9-3.9,3.9H9.8c-2.2,0-3.9-1.8-3.9-3.9V17.6H11.8z M25.5,35.2c5.4,0,9.8-4.4,9.8-9.8
	s-4.4-9.8-9.8-9.8s-9.8,4.4-9.8,9.8S20.1,35.2,25.5,35.2z M19.2,25.5c0,3.5,2.8,6.3,6.3,6.3s6.3-2.8,6.3-6.3s-2.8-6.3-6.3-6.3
	S19.2,22,19.2,25.5z"/>
</svg>
