<?xml version="1.0" encoding="utf-8"?>
<!-- Generator: Adobe Illustrator 20.0.0, SVG Export Plug-In . SVG Version: 6.00 Build 0)  -->
<svg version="1.0" id="Layer_1" xmlns="http://www.w3.org/2000/svg" xmlns:xlink="http://www.w3.org/1999/xlink" x="0px" y="0px"
	 viewBox="0 0 21.6 24" style="enable-background:new 0 0 21.6 24;" xml:space="preserve">
<style type="text/css">
	.st0{fill:#FFFFFF;}
</style>
<path class="st0" d="M19.2,2.4h-5C13.7,1,12.4,0,10.8,0S7.9,1,7.4,2.4h-5C1.1,2.4,0,3.5,0,4.8v16.8C0,22.9,1.1,24,2.4,24h16.8
	c1.3,0,2.4-1.1,2.4-2.4V4.8C21.6,3.5,20.5,2.4,19.2,2.4z M10.8,2.4c0.7,0,1.2,0.5,1.2,1.2s-0.5,1.2-1.2,1.2c-0.7,0-1.2-0.5-1.2-1.2
	S10.1,2.4,10.8,2.4z M8.4,19.2l-4.8-4.8l1.7-1.7l3.1,3.1l7.9-7.9L18,9.6L8.4,19.2z"/>
</svg>
