<?xml version="1.0" encoding="utf-8"?>
<!-- Generator: Adobe Illustrator 20.0.0, SVG Export Plug-In . SVG Version: 6.00 Build 0)  -->
<svg version="1.0" id="Layer_1" xmlns="http://www.w3.org/2000/svg" xmlns:xlink="http://www.w3.org/1999/xlink" x="0px" y="0px"
	 viewBox="0 0 16 10" style="enable-background:new 0 0 16 10;" xml:space="preserve">
<style type="text/css">
	.st0{fill:#FFFFFF;}
</style>
<path class="st0" d="M10.9,4.3c1.2,0,2.2-1,2.2-2.1S12.1,0,10.9,0S8.7,1,8.7,2.1S9.7,4.3,10.9,4.3z M5.1,4.3c1.2,0,2.2-1,2.2-2.1
	S6.3,0,5.1,0S2.9,1,2.9,2.1S3.9,4.3,5.1,4.3z M5.1,5.7C3.4,5.7,0,6.6,0,8.2V10h10.2V8.2C10.2,6.6,6.8,5.7,5.1,5.7z M10.9,5.7
	c-0.2,0-0.5,0-0.7,0c0.8,0.6,1.4,1.4,1.4,2.5V10H16V8.2C16,6.6,12.6,5.7,10.9,5.7z"/>
</svg>
