<?xml version="1.0" encoding="utf-8"?>
<!-- Generator: Adobe Illustrator 20.0.0, SVG Export Plug-In . SVG Version: 6.00 Build 0)  -->
<svg version="1.0" id="Layer_1" xmlns="http://www.w3.org/2000/svg" xmlns:xlink="http://www.w3.org/1999/xlink" x="0px" y="0px"
	 viewBox="0 0 16 18" style="enable-background:new 0 0 16 18;" xml:space="preserve">
<style type="text/css">
	.st0{fill:#FFFFFF;}
</style>
<path class="st0" d="M14.2,1.8h-3.7C10.1,0.8,9.2,0,8,0S5.9,0.8,5.5,1.8H1.8C0.8,1.8,0,2.6,0,3.6v12.6c0,1,0.8,1.8,1.8,1.8h12.4
	c1,0,1.8-0.8,1.8-1.8V3.6C16,2.6,15.2,1.8,14.2,1.8z M8,1.8c0.5,0,0.9,0.4,0.9,0.9S8.5,3.6,8,3.6S7.1,3.2,7.1,2.7S7.5,1.8,8,1.8z
	 M9.8,14.4H3.6v-1.8h6.2V14.4z M12.4,10.8H3.6V9h8.9V10.8z M12.4,7.2H3.6V5.4h8.9V7.2z"/>
</svg>
