<?xml version="1.0" encoding="utf-8"?>
<!-- Generator: Adobe Illustrator 19.0.0, SVG Export Plug-In . SVG Version: 6.00 Build 0)  -->
<svg version="1.1" id="Layer_1" xmlns="http://www.w3.org/2000/svg" xmlns:xlink="http://www.w3.org/1999/xlink" x="0px" y="0px"
	 viewBox="0 0 14.3 15.8" style="enable-background:new 0 0 14.3 15.8;" xml:space="preserve">
<path id="XMLID_2_" d="M4.8,7.1H3.2v1.6h1.6V7.1z M7.9,7.1H6.3v1.6h1.6V7.1z M11.1,7.1H9.5v1.6h1.6V7.1z M12.7,1.6h-0.8V0h-1.6v1.6
	H4V0H2.4v1.6H1.6C0.7,1.6,0,2.3,0,3.2l0,11.1c0,0.9,0.7,1.6,1.6,1.6h11.1c0.9,0,1.6-0.7,1.6-1.6V3.2C14.3,2.3,13.5,1.6,12.7,1.6z
	 M12.7,14.3H1.6V5.5h11.1V14.3z"/>
</svg>
