<?xml version="1.0" encoding="utf-8"?>
<!-- Generator: Adobe Illustrator 19.0.0, SVG Export Plug-In . SVG Version: 6.00 Build 0)  -->
<svg version="1.1" id="Layer_1" xmlns="http://www.w3.org/2000/svg" xmlns:xlink="http://www.w3.org/1999/xlink" x="0px" y="0px"
	 viewBox="0 0 15.1 15.6" style="enable-background:new 0 0 15.1 15.6;" xml:space="preserve">
<g id="Layer_1_1_">
	<g id="XMLID_2_">
		<path id="XMLID_3_" d="M4.9,1.7c0.6,0,1.2,0.2,1.7,0.5c0.3-0.1,0.6-0.1,1-0.1c1.5,0,2.9,0.6,3.9,1.7c1.1,1.1,1.6,2.5,1.6,4.1
			c0,0.4,0,0.8-0.1,1.2c0.2,0.5,0.3,1,0.3,1.5c0,0.9-0.3,1.7-1,2.4c-0.6,0.7-1.4,1-2.3,1c-0.5,0-1-0.1-1.5-0.4
			c-0.4,0.1-0.8,0.1-1,0.1c-1.5,0-2.9-0.6-4-1.7S2,9.4,2,7.8c0-0.4,0-0.8,0.1-1.1C1.8,6.2,1.7,5.6,1.7,5c0-0.9,0.3-1.7,0.9-2.3
			C3.2,2,4,1.7,4.9,1.7 M7.5,10.5c-0.3,0-0.6-0.1-0.8-0.2c-0.2-0.1-0.4-0.2-0.5-0.4C6.1,9.6,5.9,9.4,5.9,9.4C5.9,9.2,5.8,9,5.6,8.9
			C5.4,8.8,5.3,8.7,5.1,8.7c-0.2,0-0.4,0.1-0.6,0.2C4.4,9.1,4.3,9.3,4.3,9.5c0,0.3,0.1,0.7,0.4,1c0.2,0.3,0.5,0.6,0.9,0.8
			c0.5,0.3,1.2,0.4,2,0.4c0.7,0,1.2-0.1,1.8-0.3c0.5-0.2,0.9-0.5,1.1-0.9c0.3-0.4,0.4-0.8,0.4-1.3c0-0.4-0.1-0.7-0.2-1
			C10.5,8,10.3,7.8,10,7.6C9.7,7.4,9.4,7.3,9,7.1C8.5,7,8,6.9,7.8,6.8c-0.1,0-0.3,0-0.4-0.1C7.2,6.7,7.1,6.7,7,6.6
			C6.8,6.6,6.7,6.5,6.6,6.5C6.4,6.4,6.3,6.3,6.3,6.2C6.2,6.1,6.1,6,6.1,5.8c0-0.2,0.1-0.4,0.4-0.5c0.2-0.2,0.5-0.3,1-0.3
			c0.4,0,0.7,0.1,0.9,0.2c0.2,0.2,0.4,0.4,0.5,0.6C9,6.1,9.1,6.3,9.2,6.4c0.1,0.1,0.3,0.2,0.5,0.2c0.2,0,0.4-0.1,0.6-0.3
			c0.2-0.2,0.2-0.3,0.2-0.6c0-0.2-0.1-0.4-0.2-0.7C10.2,4.9,10,4.7,9.8,4.4C9.6,4.3,9.2,4.1,8.8,4C8.4,3.8,8,3.8,7.6,3.8
			c-0.6,0-1.2,0.1-1.6,0.3C5.4,4.2,5.1,4.5,4.8,4.8C4.6,5.2,4.4,5.6,4.4,6c0,0.4,0.1,0.8,0.4,1.1c0.3,0.3,0.6,0.6,1,0.7
			C6.2,8,6.7,8.2,7.2,8.3c0.1,0,0.2,0,0.4,0.1c0.1,0,0.3,0.1,0.4,0.1c0.1,0,0.2,0,0.3,0.1c0.2,0.1,0.4,0.2,0.6,0.4
			C9,9,9.1,9.2,9.1,9.5c0,0.3-0.1,0.5-0.4,0.7C8.4,10.4,8,10.5,7.5,10.5 M4.9,0C3.6,0,2.4,0.5,1.4,1.5C0.5,2.4,0,3.6,0,5
			c0,0.7,0.1,1.4,0.4,2c0,0.3-0.1,0.6-0.1,0.9c0,2,0.7,3.8,2.1,5.2c1.4,1.4,3.2,2.2,5.2,2.2c0.2,0,0.5,0,0.7-0.1
			c0.6,0.2,1.2,0.4,1.8,0.4c1.3,0,2.5-0.5,3.5-1.5c0.9-1,1.4-2.2,1.4-3.5c0-0.6-0.1-1.1-0.3-1.7c0-0.4,0.1-0.7,0.1-1
			c0-2-0.7-3.8-2.1-5.2c-1.4-1.5-3.1-2.2-5.1-2.2c-0.2,0-0.5,0-0.7,0C6.3,0.1,5.6,0,4.9,0z"/>
	</g>
</g>
</svg>
