<?xml version="1.0" encoding="utf-8"?>
<!-- Generator: Adobe Illustrator 19.0.0, SVG Export Plug-In . SVG Version: 6.00 Build 0)  -->
<svg version="1.1" id="Layer_1" xmlns="http://www.w3.org/2000/svg" xmlns:xlink="http://www.w3.org/1999/xlink" x="0px" y="0px"
	 viewBox="0 0 30 30" enable-background="new 0 0 30 30" xml:space="preserve">
<g id="XMLID_2_">
	<path id="XMLID_32_" fill="#FFFFFF" d="M9,24c-1.6,0-3,1.4-3,3c0,1.7,1.3,3,3,3s3-1.3,3-3C12,25.4,10.7,24,9,24z M0,0v3h3l5.4,11.4
		l-2,3.7C6.1,18.5,6,19,6,19.5c0,1.7,1.4,3,3,3h18v-3H9.6c-0.2,0-0.4-0.2-0.4-0.4l0-0.2l1.4-2.4h11.2c1.1,0,2.1-0.6,2.6-1.5l5.4-9.7
		C29.9,5,30,4.8,30,4.5C30,3.7,29.3,3,28.5,3H6.3L4.9,0L0,0z M24,24c-1.6,0-3,1.4-3,3c0,1.7,1.3,3,3,3c1.6,0,3-1.3,3-3
		C27,25.4,25.7,24,24,24z"/>
	<g id="XMLID_3_">
		<defs>
			<path id="XMLID_4_" d="M10.7,16.5h11.2c1.1,0,2.1-0.6,2.6-1.5l5.4-9.7C29.9,5,30,4.8,30,4.5C30,3.7,29.3,3,28.5,3H6.3L4.9,0L0,0
				v3h3l5.4,11.4L10.7,16.5"/>
		</defs>
		<clipPath id="XMLID_36_">
			<use xlink:href="#XMLID_4_"  overflow="visible"/>
		</clipPath>
		<g id="XMLID_6_" clip-path="url(#XMLID_36_)">
			<rect id="XMLID_31_" x="4.3" y="11.1" width="3.3" height="2"/>
			<rect id="XMLID_30_" x="11" y="11.1" width="3.3" height="2"/>
			<rect id="XMLID_29_" x="17.7" y="11.1" width="3.3" height="2"/>
			<rect id="XMLID_28_" x="24.4" y="11.1" width="3.3" height="2"/>
			<rect id="XMLID_27_" x="7.6" y="13.1" width="3.3" height="2"/>
			<rect id="XMLID_26_" x="4.3" y="15.2" width="3.3" height="2"/>
			<rect id="XMLID_25_" x="11" y="15.2" width="3.3" height="2"/>
			<rect id="XMLID_24_" x="7.6" y="17.2" width="3.3" height="2"/>
			<rect id="XMLID_23_" x="14.3" y="13.2" width="3.3" height="2"/>
			<rect id="XMLID_22_" x="21" y="13.2" width="3.3" height="2"/>
			<rect id="XMLID_21_" x="4.3" y="7.1" width="3.3" height="2"/>
			<rect id="XMLID_20_" x="11" y="7.1" width="3.3" height="2"/>
			<rect id="XMLID_19_" x="17.7" y="7.1" width="3.3" height="2"/>
			<rect id="XMLID_18_" x="24.4" y="7.1" width="3.3" height="2"/>
			<rect id="XMLID_17_" x="7.6" y="9.1" width="3.3" height="2"/>
			<rect id="XMLID_16_" x="14.3" y="9.1" width="3.3" height="2"/>
			<rect id="XMLID_15_" x="21" y="9.1" width="3.3" height="2"/>
			<rect id="XMLID_14_" x="17.7" y="15.2" width="3.3" height="2"/>
			<rect id="XMLID_13_" x="24.4" y="15.2" width="3.3" height="2"/>
			<rect id="XMLID_12_" x="14.3" y="17.2" width="3.3" height="2"/>
			<rect id="XMLID_11_" x="21" y="17.2" width="3.3" height="2"/>
			<rect id="XMLID_10_" x="17.7" y="19.2" width="3.3" height="2"/>
			<rect id="XMLID_9_" x="24.4" y="19.2" width="3.3" height="2"/>
			<rect id="XMLID_8_" x="11" y="19.2" width="3.3" height="2"/>
			<rect id="XMLID_7_" x="4.3" y="19.2" width="3.3" height="2"/>
		</g>
	</g>
</g>
</svg>
