<?xml version="1.0" encoding="utf-8"?>
<!-- Generator: Adobe Illustrator 19.0.0, SVG Export Plug-In . SVG Version: 6.00 Build 0)  -->
<svg version="1.1" id="Layer_1" xmlns="http://www.w3.org/2000/svg" xmlns:xlink="http://www.w3.org/1999/xlink" x="0px" y="0px"
	 viewBox="9.7 -4.3 16 16" enable-background="new 9.7 -4.3 16 16" xml:space="preserve">
<path fill="#FFFFFF" d="M21.2,5.8h-0.7l-0.3-0.2c0.9-1,1.4-2.4,1.4-3.9c0-3.3-2.7-5.9-5.9-5.9S9.7-1.6,9.7,1.7s2.7,5.9,5.9,5.9
	c1.5,0,2.8-0.5,3.9-1.4l0.2,0.3v0.7l4.6,4.6l1.4-1.4L21.2,5.8z M15.7,5.8c-2.3,0-4.1-1.8-4.1-4.1s1.8-4.1,4.1-4.1s4.1,1.8,4.1,4.1
	S18,5.8,15.7,5.8z"/>
</svg>
