<?xml version="1.0" encoding="utf-8"?>
<!-- Generator: Adobe Illustrator 19.0.0, SVG Export Plug-In . SVG Version: 6.00 Build 0)  -->
<svg version="1.1" id="Layer_1" xmlns="http://www.w3.org/2000/svg" xmlns:xlink="http://www.w3.org/1999/xlink" x="0px" y="0px"
	 viewBox="0 0 16 16" enable-background="new 0 0 16 16" xml:space="preserve">
<g id="XMLID_5_">
	<path id="XMLID_7_" fill="#FFFFFF" d="M13.7,2.3C12.2,0.8,10.2,0,8,0c-4.4,0-8,3.6-8,7.9c0,1.4,0.4,2.8,1.1,4L0,16l4.2-1.1
		c1.2,0.6,2.5,1,3.8,1h0c0,0,0,0,0,0c4.4,0,8-3.6,8-7.9C16,5.8,15.2,3.8,13.7,2.3z M8,14.5L8,14.5c-1.2,0-2.4-0.3-3.4-0.9l-0.2-0.1
		l-2.5,0.7l0.7-2.4l-0.2-0.2c-0.7-1-1-2.3-1-3.5c0-3.6,3-6.6,6.6-6.6c1.8,0,3.4,0.7,4.7,1.9c1.3,1.2,1.9,2.9,1.9,4.7
		C14.7,11.6,11.7,14.5,8,14.5z"/>
	<path id="XMLID_1_" fill="#FFFFFF" d="M11.7,9.6c-0.2-0.1-1.2-0.6-1.4-0.6C10.1,8.9,10,8.8,9.9,9C9.7,9.2,9.3,9.7,9.2,9.8
		C9.1,10,9,10,8.8,9.9C8.6,9.8,8,9.6,7.2,8.9c-0.6-0.5-1-1.2-1.1-1.4C6,7.3,6.1,7.2,6.2,7.1C6.3,7,6.4,6.9,6.5,6.8
		c0.1-0.1,0.1-0.2,0.2-0.3c0.1-0.1,0-0.2,0-0.3C6.6,6,6.2,5,6,4.6C5.9,4.2,5.7,4.3,5.6,4.3c-0.1,0-0.2,0-0.4,0c-0.1,0-0.3,0-0.5,0.2
		C4.5,4.7,4,5.2,4,6.2c0,1,0.7,1.9,0.8,2c0.1,0.1,1.4,2.1,3.4,3c0.5,0.2,0.8,0.3,1.1,0.4c0.5,0.2,0.9,0.1,1.3,0.1
		c0.4-0.1,1.2-0.5,1.3-0.9c0.2-0.5,0.2-0.9,0.1-0.9C12,9.7,11.9,9.7,11.7,9.6z"/>
</g>
</svg>
