<?xml version="1.0" encoding="utf-8"?>
<!-- Generator: Adobe Illustrator 19.0.0, SVG Export Plug-In . SVG Version: 6.00 Build 0)  -->
<svg version="1.1" id="Layer_1" xmlns="http://www.w3.org/2000/svg" xmlns:xlink="http://www.w3.org/1999/xlink" x="0px" y="0px"
	 viewBox="0 0 180 92.8" enable-background="new 0 0 180 92.8" xml:space="preserve">
<g id="XMLID_2_">
	<g id="XMLID_1_">
		<path id="XMLID_10_" fill="#D81218" d="M131.4,19.3L93.4,0.1C93.2,0,93,0,92.8,0H52.2c-0.2,0-0.4,0-0.5,0.1L20.7,13.9
			c-0.1,0-0.2,0.1-0.3,0.1L5.4,17.3c-0.6,0.1-1.1,0.7-1.1,1.3v10.5c0,0.4-0.2,0.8-0.6,1.1l-3.2,2.3C0.2,32.7,0,33.1,0,33.6V43
			c0,0.6,0.4,1.1,0.9,1.3c3.6,1.3,17,6,18.9,6.7C19.9,51,20,51,20.2,51h0.9c0.7,0,1.3-0.5,1.3-1.2c0.6-7.9,7.2-14.4,15.3-14.4
			s14.7,6.5,15.3,14.4c0.1,0.7,0.6,1.2,1.3,1.2h71.8c0.7,0,1.3-0.5,1.3-1.2c0.6-7.9,7.2-14.4,15.3-14.4s14.7,6.5,15.3,14.4
			c0.1,0.7,0.6,1.2,1.3,1.2h17.3c0.6,0,1.2-0.5,1.3-1.1l1.9-10.8c0-0.1,0-0.2,0-0.2l-1.2-9.8c0-0.6-0.5-1.2-1.1-1.3l-45.9-8.4
			C131.7,19.4,131.6,19.3,131.4,19.3z M34.4,15.6v-1c0-0.5,0.3-0.9,0.7-1.2l19-10.2c0.2-0.1,0.4-0.2,0.6-0.2h15.5
			c0.7,0,1.3,0.5,1.3,1.2L73,16.7c0.1,0.8-0.6,1.5-1.4,1.5l-35.9-1.3C35,16.9,34.4,16.3,34.4,15.6z M78.8,17.8l-2-13.2
			c-0.1-0.8,0.5-1.5,1.3-1.5h14.1c0.2,0,0.4,0,0.6,0.1L123.2,18c0.4,0.2,0.6,0.5,0.7,0.9v0c0.2,0.9-0.4,1.7-1.3,1.7L80,18.9
			C79.4,18.9,78.9,18.4,78.8,17.8z"/>
		<path id="XMLID_12_" fill="#D81218" d="M37.8,37.8c-7.1,0-12.9,5.8-12.9,12.9c0,7.1,5.8,12.9,12.9,12.9s12.9-5.8,12.9-12.9
			C50.7,43.6,44.9,37.8,37.8,37.8z M37.8,59.4c-4.8,0-8.8-3.9-8.8-8.8s3.9-8.8,8.8-8.8s8.8,3.9,8.8,8.8S42.6,59.4,37.8,59.4z"/>
		<path id="XMLID_13_" fill="#D81218" d="M142.8,37.8c-7.1,0-12.9,5.8-12.9,12.9c0,7.1,5.8,12.9,12.9,12.9s12.9-5.8,12.9-12.9
			C155.7,43.6,150,37.8,142.8,37.8z M142.8,59.4c-4.8,0-8.8-3.9-8.8-8.8s3.9-8.8,8.8-8.8s8.8,3.9,8.8,8.8S147.7,59.4,142.8,59.4z"/>
	</g>
	<path id="XMLID_14_" fill="#D81218" d="M125.4,53.3h-70c-1,0-1.8,0.8-1.8,1.8v2.5c0,1,0.8,1.8,1.8,1.8h31.3c1,0,1.8,0.8,1.8,1.8
		v25.3h-13c-1.7,0-3.1,1.4-3.1,3.1s1.4,3.1,3.1,3.1h29.6c1.7,0,3.1-1.4,3.1-3.1s-1.4-3.1-3.1-3.1h-13V61.3c0-1,0.8-1.8,1.8-1.8h31.3
		c1,0,1.8-0.8,1.8-1.8v-2.5C127.3,54.2,126.5,53.3,125.4,53.3z"/>
</g>
</svg>
