<?xml version="1.0" encoding="utf-8"?>
<!-- Generator: Adobe Illustrator 19.0.0, SVG Export Plug-In . SVG Version: 6.00 Build 0)  -->
<svg version="1.1" id="Layer_1" xmlns="http://www.w3.org/2000/svg" xmlns:xlink="http://www.w3.org/1999/xlink" x="0px" y="0px"
	 viewBox="0 0 120 120" enable-background="new 0 0 120 120" xml:space="preserve">
<g id="XMLID_1_">
	<g id="XMLID_8_">
		<path id="XMLID_4_" fill="#D81218" d="M43.8,87.7c-11.7,0-22.7-4.6-31-12.8c-17.1-17.1-17.1-44.9,0-62c17.1-17.1,44.9-17.1,62,0
			s17.1,44.9,0,62C66.6,83.1,55.5,87.7,43.8,87.7z M43.8,7C34.4,7,25,10.6,17.8,17.8c-14.4,14.4-14.4,37.7,0,52.1
			c7,7,16.2,10.8,26.1,10.8s19.1-3.8,26.1-10.8c14.4-14.4,14.4-37.7,0-52.1C62.7,10.6,53.3,7,43.8,7z"/>
	</g>
	<g id="XMLID_2_">
		<path id="XMLID_32_" fill="#D81218" d="M118.5,118.5L118.5,118.5c-1.9,1.9-5,1.9-6.9,0L72.4,79.3c-1.9-1.9-1.9-5,0-6.9l0,0
			c1.9-1.9,5-1.9,6.9,0l39.3,39.3C120.4,113.5,120.4,116.6,118.5,118.5z"/>
	</g>
</g>
<path id="XMLID_86_" fill="#D81218" d="M64.6,43.8c0-3.6,2.2-6.8,5.3-8.2c-0.5-1.5-1.1-3-1.8-4.4C67,31.7,65.9,32,64.6,32
	c-5,0-9-4-9-9c0-1.2,0.2-2.4,0.7-3.4c-1.4-0.7-2.9-1.3-4.4-1.8c-1.4,3.1-4.5,5.3-8.2,5.3c-3.6,0-6.7-2.2-8.2-5.2
	c-1.5,0.5-3,1.1-4.4,1.8c0.4,1,0.7,2.2,0.7,3.4c0,5-4,9-9,9c-1.2,0-2.3-0.2-3.4-0.7c-0.7,1.4-1.3,2.9-1.8,4.4
	c3.1,1.4,5.2,4.5,5.2,8.1c0,3.6-2.1,6.7-5.2,8.1c0.5,1.5,1.1,3,1.8,4.4c1-0.4,2.2-0.7,3.4-0.7c5,0,9,4,9,9c0,1.2-0.2,2.3-0.7,3.4
	c1.4,0.7,2.9,1.3,4.4,1.8c1.4-3.1,4.5-5.2,8.2-5.2c3.6,0,6.8,2.2,8.2,5.3c1.5-0.5,3-1.1,4.4-1.8c-0.4-1.1-0.7-2.2-0.7-3.4
	c0-5,4-9,9-9c1.2,0,2.4,0.2,3.4,0.7c0.7-1.4,1.3-2.9,1.8-4.4C66.8,50.6,64.6,47.5,64.6,43.8z M43.8,58.2c-7.9,0-14.3-6.4-14.3-14.3
	s6.4-14.3,14.3-14.3c7.9,0,14.3,6.4,14.3,14.3S51.7,58.2,43.8,58.2z"/>
</svg>
