<?xml version="1.0" encoding="utf-8"?>
<!-- Generator: Adobe Illustrator 19.0.0, SVG Export Plug-In . SVG Version: 6.00 Build 0)  -->
<svg version="1.1" id="Layer_2" xmlns="http://www.w3.org/2000/svg" xmlns:xlink="http://www.w3.org/1999/xlink" x="0px" y="0px"
	 viewBox="0 0 82 111" style="enable-background:new 0 0 82 111;" xml:space="preserve">
<style type="text/css">
	.st0{fill:#D81218;}
</style>
<path id="XMLID_10_" class="st0" d="M81.1,19.5l-9.6-9.3l-9.3-9.5C61.7,0.2,61,0,60.3,0H2.9C1.4,0,0,1.1,0,2.6v105.6
	c0,1.5,1.4,2.8,2.9,2.8h76.3c1.5,0,2.9-1.3,2.9-2.8V21.4C82,20.7,81.6,20,81.1,19.5z M60,69H22v-2h38V69z M60,57H22v-3h38V57z
	 M60,44H22v-3h38V44z M79,24H61.4c-2.2,0-3.4-1.5-3.4-3.7V2h2v18.3c0,0.7,0.7,1.7,1.4,1.7H79V24z"/>
</svg>
