<?xml version="1.0" encoding="utf-8"?>
<!-- Generator: Adobe Illustrator 19.0.0, SVG Export Plug-In . SVG Version: 6.00 Build 0)  -->
<svg version="1.1" id="Layer_1" xmlns="http://www.w3.org/2000/svg" xmlns:xlink="http://www.w3.org/1999/xlink" x="0px" y="0px"
	 viewBox="0 0 92 149.2" enable-background="new 0 0 92 149.2" xml:space="preserve">
<path id="XMLID_99_" fill="#D81218" d="M87,65.2H5c-2.8,0-5-2.2-5-5v-7.5h92v7.5C92,62.9,89.8,65.2,87,65.2z"/>
<path id="XMLID_98_" fill="#D81218" d="M58,19.7V5c0-2.8-2.2-5-5-5H39c-2.8,0-5,2.2-5,5v14.7c0,1.5-0.6,2.9-1.8,3.8L0,51h92
	L59.8,23.5C58.6,22.5,58,21.2,58,19.7z"/>
<g id="XMLID_92_">
	<rect id="XMLID_97_" x="13.5" y="74.3" fill="#D81218" width="2" height="75"/>
	<rect id="XMLID_96_" x="76.5" y="74.3" fill="#D81218" width="2" height="75"/>
	<rect id="XMLID_95_" x="45" y="74.3" fill="#D81218" width="2" height="75"/>
	<rect id="XMLID_94_" x="60.8" y="74.3" fill="#D81218" width="2" height="75"/>
	<rect id="XMLID_93_" x="29.3" y="74.3" fill="#D81218" width="2" height="75"/>
</g>
</svg>
