<?xml version="1.0" encoding="utf-8"?>
<!-- Generator: Adobe Illustrator 19.0.0, SVG Export Plug-In . SVG Version: 6.00 Build 0)  -->
<svg version="1.1" id="Layer_1" xmlns="http://www.w3.org/2000/svg" xmlns:xlink="http://www.w3.org/1999/xlink" x="0px" y="0px"
	 viewBox="0 0 120 97.3" enable-background="new 0 0 120 97.3" xml:space="preserve">
<g id="XMLID_1_">
	<path id="XMLID_6_" fill="#D81218" d="M0,29.9C0,29.9,0,29.9,0,29.9L0,29.9l0,37.7h0C0.3,84,27,97.3,60,97.3
		c33,0,59.7-13.3,60-29.7h0V30h0c0,0,0,0,0,0C120,13.4,93.1,0,60,0S0,13.4,0,29.9z M108.5,27.8c0,12.4-21.7,22.5-48.5,22.5
		S11.5,40.2,11.5,27.8S33.2,5.4,60,5.4S108.5,15.4,108.5,27.8z"/>
	<path id="XMLID_33_" fill="#D81218" d="M19.3,27.4c0,2.1,0.9,4,2.6,5.8c0.1,0.1,0.3,0.2,0.4,0.2c12.4-1.2,20.9-4,21-7.4
		c0.1-3.1-6.5-6-16.8-7.9c-0.1,0-0.3,0-0.4,0.1C21.9,20.8,19.3,24,19.3,27.4z"/>
	<path id="XMLID_28_" fill="#D81218" d="M51.3,35.2c-4.3-0.2-11.7,0.3-20.1,3.3c-0.4,0.2-0.4,0.8,0,0.9c6.9,2.9,16.4,4.7,26.8,4.9
		c0.3,0,0.6-0.3,0.5-0.6C57.4,39,53.8,35.4,51.3,35.2z"/>
	<path id="XMLID_32_" fill="#D81218" d="M39.5,13.5c-0.4,0.1-0.5,0.7-0.1,0.9c6.8,3.8,13.1,6,16.4,6c3.6,0,8.5-3,13.2-7.9
		c0.3-0.3,0.1-0.8-0.3-0.8c-2.9-0.3-5.8-0.4-8.9-0.4C52.4,11.3,45.5,12.1,39.5,13.5z"/>
	<path id="XMLID_31_" fill="#D81218" d="M70,35.4c-1.1,1.5-1.1,4.4,0,8.1c0.1,0.2,0.3,0.4,0.5,0.4c11.5-1.3,20.9-4.6,25.9-8.9
		c0.3-0.3,0.2-0.8-0.2-0.9C84.3,31.2,73,31.4,70,35.4z"/>
	<path id="XMLID_4_" fill="#D81218" d="M80.5,13.6c-0.2,0-0.3,0-0.4,0.1c-4.8,3.7-7.3,7-6.5,9.1c1.2,2.7,12.6,4.9,26,4.5
		c0.3,0,0.5-0.3,0.5-0.6C99.2,21.1,91.6,16.3,80.5,13.6z"/>
	<ellipse id="XMLID_3_" fill="#D81218" cx="60.1" cy="27.3" rx="7.3" ry="3.7"/>
	<path id="XMLID_2_" fill="#D81218" d="M120,29.9"/>
</g>
</svg>
